<svg xmlns="http://www.w3.org/2000/svg" width="64" height="64" viewBox="0 0 64 64" fill="none">
  <defs>
    <linearGradient id="bg" x1="10" y1="8" x2="54" y2="56" gradientUnits="userSpaceOnUse">
      <stop stop-color="#0B748E" />
      <stop offset="1" stop-color="#12AFCB" />
    </linearGradient>
    <linearGradient id="paper" x1="20" y1="20" x2="44" y2="45" gradientUnits="userSpaceOnUse">
      <stop stop-color="#FFFFFF" />
      <stop offset="1" stop-color="#E9F8FC" />
    </linearGradient>
  </defs>
  <rect x="6" y="6" width="52" height="52" rx="18" fill="url(#bg)" />
  <path d="M20 22.5C20 20.567 21.567 19 23.5 19H29.5C31.972 19 34.249 20.069 36 21.853C37.751 20.069 40.028 19 42.5 19H44C45.657 19 47 20.343 47 22V39.5C47 40.881 45.881 42 44.5 42H42.5C40.087 42 37.877 42.904 36.204 44.392L36 44.573L35.796 44.392C34.123 42.904 31.913 42 29.5 42H23.5C21.567 42 20 40.433 20 38.5V22.5Z" fill="url(#paper)" />
  <path d="M36 22.5V41.9" stroke="#0E5F74" stroke-width="2.4" stroke-linecap="round" />
  <path d="M24 25.5H31" stroke="#0EA5C6" stroke-width="2.2" stroke-linecap="round" />
  <path d="M24 29.5H31" stroke="#0EA5C6" stroke-width="2.2" stroke-linecap="round" opacity=".78" />
  <path d="M41 25.5H43" stroke="#0EA5C6" stroke-width="2.2" stroke-linecap="round" />
  <path d="M41 29.5H43" stroke="#0EA5C6" stroke-width="2.2" stroke-linecap="round" opacity=".78" />
  <path d="M39.5 14C42.538 14 45 16.462 45 19.5C45 22.538 42.538 25 39.5 25H38.39L35.931 27.092C35.605 27.369 35.109 27.137 35.109 26.709V24.424C33.295 23.571 32 21.729 32 19.5C32 16.462 34.462 14 37.5 14H39.5Z" fill="#072F3A" fill-opacity=".14" />
  <circle cx="37.8" cy="19.4" r="1.35" fill="#FFFFFF" />
  <circle cx="41.2" cy="19.4" r="1.35" fill="#FFFFFF" />
</svg>
